<svg width="16" height="16" viewBox="0 0 16 16" fill="none" xmlns="http://www.w3.org/2000/svg">
<rect width="16" height="16" rx="3" fill="#2F2F2F"/>
<path d="M7.268 4.104C6.54 3.824 5.852 3.684 5.204 3.684C4.564 3.684 4.064 3.82 3.704 4.092C3.344 4.364 3.164 4.74 3.164 5.22C3.164 5.804 3.468 6.256 4.076 6.576C4.348 6.712 4.644 6.84 4.964 6.96C5.292 7.072 5.62 7.2 5.948 7.344C6.276 7.488 6.576 7.652 6.848 7.836C7.12 8.02 7.34 8.276 7.508 8.604C7.676 8.924 7.76 9.336 7.76 9.84C7.76 10.336 7.62 10.76 7.34 11.112C7.06 11.464 6.72 11.704 6.32 11.832C5.928 11.952 5.468 12.012 4.94 12.012C3.956 12.012 3.116 11.768 2.42 11.28L2.48 11.184C2.744 11.392 3.084 11.564 3.5 11.7C3.924 11.828 4.356 11.892 4.796 11.892C5.444 11.892 5.996 11.744 6.452 11.448C6.916 11.144 7.148 10.7 7.148 10.116C7.148 9.476 6.844 8.976 6.236 8.616C5.964 8.456 5.664 8.308 5.336 8.172C5.016 8.036 4.692 7.896 4.364 7.752C4.036 7.6 3.736 7.432 3.464 7.248C2.856 6.848 2.552 6.28 2.552 5.544C2.552 4.96 2.748 4.488 3.14 4.128C3.532 3.76 4.12 3.576 4.904 3.576C5.696 3.576 6.5 3.712 7.316 3.984L7.268 4.104ZM13.7918 3.6V3.72H10.0118V7.56H13.5158V7.68H10.0118V12H9.01578V3.6H13.7918Z" fill="#6BE28C"/>
</svg>
