<svg width="32" height="32" viewBox="0 0 32 32" fill="none" xmlns="http://www.w3.org/2000/svg">
<rect width="32" height="32" rx="5" fill="#2F2F2F"/>
<path d="M14.536 9.208C13.08 8.648 11.704 8.368 10.408 8.368C9.128 8.368 8.128 8.64 7.408 9.184C6.688 9.728 6.328 10.48 6.328 11.44C6.328 12.608 6.936 13.512 8.152 14.152C8.696 14.424 9.288 14.68 9.928 14.92C10.584 15.144 11.24 15.4 11.896 15.688C12.552 15.976 13.152 16.304 13.696 16.672C14.24 17.04 14.68 17.552 15.016 18.208C15.352 18.848 15.52 19.672 15.52 20.68C15.52 21.672 15.24 22.52 14.68 23.224C14.12 23.928 13.44 24.408 12.64 24.664C11.856 24.904 10.936 25.024 9.88 25.024C7.912 25.024 6.232 24.536 4.84 23.56L4.96 23.368C5.488 23.784 6.168 24.128 7 24.4C7.848 24.656 8.712 24.784 9.592 24.784C10.888 24.784 11.992 24.488 12.904 23.896C13.832 23.288 14.296 22.4 14.296 21.232C14.296 19.952 13.688 18.952 12.472 18.232C11.928 17.912 11.328 17.616 10.672 17.344C10.032 17.072 9.384 16.792 8.728 16.504C8.072 16.2 7.472 15.864 6.928 15.496C5.712 14.696 5.104 13.56 5.104 12.088C5.104 10.92 5.496 9.976 6.28 9.256C7.064 8.52 8.24 8.152 9.808 8.152C11.392 8.152 13 8.424 14.632 8.968L14.536 9.208ZM27.5836 8.2V8.44H20.0236V16.12H27.0316V16.36H20.0236V25H18.0316V8.2H27.5836Z" fill="#6BE28C"/>
</svg>
