<svg width="200" height="200" viewBox="0 0 200 200" fill="none" xmlns="http://www.w3.org/2000/svg">
<rect width="200" height="200" rx="30" fill="#2F2F2F"/>
<path d="M91.68 61.04C84.4 58.24 77.52 56.84 71.04 56.84C64.64 56.84 59.64 58.2 56.04 60.92C52.44 63.64 50.64 67.4 50.64 72.2C50.64 78.04 53.68 82.56 59.76 85.76C62.48 87.12 65.44 88.4 68.64 89.6C71.92 90.72 75.2 92 78.48 93.44C81.76 94.88 84.76 96.52 87.48 98.36C90.2 100.2 92.4 102.76 94.08 106.04C95.76 109.24 96.6 113.36 96.6 118.4C96.6 123.36 95.2 127.6 92.4 131.12C89.6 134.64 86.2 137.04 82.2 138.32C78.28 139.52 73.68 140.12 68.4 140.12C58.56 140.12 50.16 137.68 43.2 132.8L43.8 131.84C46.44 133.92 49.84 135.64 54 137C58.24 138.28 62.56 138.92 66.96 138.92C73.44 138.92 78.96 137.44 83.52 134.48C88.16 131.44 90.48 127 90.48 121.16C90.48 114.76 87.44 109.76 81.36 106.16C78.64 104.56 75.64 103.08 72.36 101.72C69.16 100.36 65.92 98.96 62.64 97.52C59.36 96 56.36 94.32 53.64 92.48C47.56 88.48 44.52 82.8 44.52 75.44C44.52 69.6 46.48 64.88 50.4 61.28C54.32 57.6 60.2 55.76 68.04 55.76C75.96 55.76 84 57.12 92.16 59.84L91.68 61.04ZM156.918 56V57.2H119.118V95.6H154.158V96.8H119.118V140H109.158V56H156.918Z" fill="#6BE28C"/>
</svg>
